<?xml version="1.0" standalone="no"?>
<!DOCTYPE svg PUBLIC "-//W3C//DTD SVG 20010904//EN"
 "http://www.w3.org/TR/2001/REC-SVG-20010904/DTD/svg10.dtd">
<svg version="1.0" xmlns="http://www.w3.org/2000/svg"
 width="512.000000pt" height="512.000000pt" viewBox="0 0 512.000000 512.000000"
 preserveAspectRatio="xMidYMid meet">

<g transform="translate(0.000000,512.000000) scale(0.100000,-0.100000)"
fill="#000000" stroke="none">
<path d="M2171 4564 c-122 -27 -142 -35 -204 -88 -56 -47 -69 -53 -137 -65
-98 -17 -212 -55 -277 -92 -29 -17 -55 -34 -57 -38 -3 -4 21 -5 52 -3 31 2 67
0 80 -5 18 -7 -8 -21 -161 -83 -176 -73 -184 -75 -222 -64 -89 27 -186 10
-289 -50 -38 -22 -46 -30 -34 -37 11 -6 36 2 80 25 36 19 88 37 117 41 50 7
134 -6 175 -28 18 -9 15 -12 -25 -33 -24 -13 -39 -23 -34 -23 6 -1 28 9 50 22
38 21 75 25 75 8 0 -5 -20 -16 -45 -25 -56 -22 -123 -55 -111 -56 5 0 46 16
92 36 46 19 91 34 100 32 10 -2 -31 -23 -90 -48 -59 -24 -110 -48 -113 -53 -7
-12 25 -2 127 40 159 65 158 50 -2 -21 -31 -15 -60 -31 -63 -36 -9 -15 -2 -13
61 15 72 32 82 31 24 -1 -60 -33 -16 -20 94 27 49 22 91 37 94 34 3 -2 -15
-13 -39 -24 -149 -64 -194 -91 -131 -78 29 7 105 -14 344 -95 82 -27 153 -46
159 -42 7 4 9 3 6 -3 -7 -12 121 -56 135 -47 4 3 8 3 8 0 0 -7 -129 -96 -140
-96 -13 0 -23 38 -16 66 4 13 2 24 -2 24 -18 0 -95 -104 -114 -153 -17 -44
-18 -57 -7 -95 15 -54 1 -72 -26 -32 -32 47 -90 63 -149 40 -30 -11 -112 -84
-128 -113 -9 -17 -7 -18 22 -12 71 16 90 -56 45 -167 -14 -34 -25 -72 -25 -85
0 -13 -4 -23 -9 -23 -18 0 -64 45 -76 74 l-13 31 -12 -30 c-6 -16 -14 -56 -17
-90 -5 -57 3 -90 36 -145 5 -8 14 -32 21 -53 14 -46 2 -67 -42 -67 -27 0 -166
-71 -179 -92 -4 -5 -15 -8 -25 -6 -11 3 -35 -3 -55 -13 -72 -35 -153 -50 -209
-38 -29 6 -70 8 -92 5 -38 -6 -42 -4 -111 59 -95 89 -103 88 -177 -35 -44 -74
-68 -102 -106 -128 -209 -138 -337 -344 -378 -607 -18 -118 -30 -575 -14 -535
6 14 14 133 19 265 4 132 13 263 18 290 37 172 118 334 223 446 45 48 138 123
144 116 12 -11 -34 -86 -81 -133 -104 -105 -181 -245 -226 -414 -17 -60 -22
-123 -29 -325 -8 -245 -8 -252 -39 -340 -18 -49 -34 -101 -38 -115 l-5 -25 16
22 c57 76 85 240 85 485 0 75 5 165 11 201 30 187 124 379 246 501 l38 38 22
-27 22 -28 -21 -34 c-12 -21 -37 -43 -66 -56 -39 -19 -46 -27 -49 -55 -2 -18
4 -46 12 -64 21 -42 21 -44 -14 -58 -17 -7 -33 -22 -36 -36 -7 -28 11 -88 39
-127 19 -27 19 -34 7 -117 -14 -100 -9 -153 21 -212 21 -42 99 -132 107 -124
2 3 -4 26 -14 52 -16 42 -17 56 -5 161 16 148 18 152 47 116 24 -30 26 -29 39
31 l6 30 22 -38 c12 -22 32 -46 45 -54 l22 -14 1 68 0 69 20 -55 c19 -53 71
-120 94 -120 8 0 11 17 8 53 l-5 52 26 -37 c26 -36 54 -58 75 -58 7 0 11 23
11 56 0 30 4 53 9 50 4 -3 16 -45 25 -93 26 -132 43 -185 77 -237 33 -49 116
-118 157 -131 22 -6 22 -5 -8 53 -17 33 -39 95 -50 137 -21 83 -44 244 -36
252 16 16 34 -14 50 -83 11 -44 23 -83 27 -88 13 -15 42 57 47 121 4 53 8 63
23 63 11 0 19 -4 19 -9 0 -5 5 -22 10 -36 14 -38 35 -18 50 48 11 47 37 110
40 97 1 -3 7 -43 13 -89 7 -47 17 -86 23 -88 6 -2 28 34 50 79 33 69 39 94 41
153 2 88 24 97 36 15 4 -30 11 -58 16 -63 13 -13 48 38 67 96 9 29 20 56 24
60 4 5 38 -20 75 -55 l68 -64 -13 -100 c-24 -176 -84 -341 -157 -431 -68 -83
-230 -159 -413 -193 -278 -52 -421 -118 -543 -250 -75 -81 -109 -153 -115
-245 -7 -112 29 -162 134 -189 79 -20 147 -20 190 0 72 34 23 94 -77 94 -38 0
-41 2 -60 46 -37 83 -1 182 94 253 77 58 230 99 390 104 l67 2 34 -83 33 -82
-38 -54 c-47 -65 -48 -90 -10 -143 39 -53 78 -83 110 -83 19 0 46 -18 94 -63
l67 -62 -27 -80 c-23 -70 -27 -97 -27 -215 -1 -144 6 -190 28 -190 11 0 13 7
6 28 -28 99 -20 257 21 387 19 63 106 219 203 367 98 150 171 337 196 507 16
102 8 289 -16 381 -25 99 -95 237 -159 313 -65 79 -181 159 -261 183 -29 8
-69 26 -89 40 -20 13 -40 22 -45 19 -5 -3 -12 4 -15 15 -6 18 -9 19 -23 8 -12
-9 -11 -6 2 10 11 12 24 22 31 22 7 0 25 6 41 14 42 20 77 30 71 19 -3 -5 13
-14 36 -21 24 -6 58 -27 81 -49 36 -35 38 -36 33 -13 -4 14 -4 19 -1 12 3 -6
11 -9 17 -5 7 3 9 3 5 -2 -4 -4 25 -42 64 -84 214 -228 308 -445 308 -709 0
-262 -81 -482 -294 -802 -107 -161 -154 -325 -142 -495 8 -116 15 -145 33
-145 11 0 13 5 8 18 -14 33 -18 234 -5 303 6 38 13 69 15 69 1 0 29 -17 61
-39 64 -42 129 -69 140 -58 4 4 0 38 -9 76 -10 38 -17 76 -17 84 0 8 25 29 55
46 31 17 64 40 75 51 16 16 24 18 50 8 23 -7 38 -7 55 0 18 9 31 7 54 -4 36
-18 55 -14 130 29 58 32 91 61 91 77 0 5 -16 16 -36 25 -20 8 -34 18 -32 22 1
5 24 40 50 79 38 57 54 73 79 78 43 8 97 67 137 148 50 102 44 112 -52 83 -27
-8 -60 -15 -73 -15 -20 0 -23 3 -17 28 4 15 19 59 34 97 22 56 32 69 46 67 11
-2 48 -5 84 -5 58 -2 73 2 138 38 86 46 188 126 181 140 -2 6 -32 9 -69 7 -84
-5 -143 11 -164 43 -23 36 -20 48 24 93 43 45 107 82 141 82 12 0 52 -19 88
-42 78 -49 141 -59 217 -35 27 9 72 19 99 23 80 11 83 19 18 43 -32 12 -69 30
-82 40 l-25 19 60 7 c32 4 63 8 69 9 5 2 31 -8 56 -21 59 -29 105 -29 182 1
48 19 89 25 182 30 215 10 384 38 479 80 129 57 285 178 515 401 153 148 221
236 291 375 108 215 144 404 121 644 -39 415 -167 650 -465 849 -178 120 -439
219 -638 242 -44 6 -68 16 -108 46 -61 45 -99 58 -200 65 -72 6 -74 5 -46 -10
15 -9 32 -13 37 -10 14 8 119 -16 161 -37 48 -25 96 -85 183 -232 38 -65 87
-135 108 -157 l40 -39 -75 24 c-87 28 -254 59 -274 51 -8 -3 -14 1 -14 10 0
10 6 14 18 10 33 -10 204 -37 208 -33 4 4 -116 30 -200 42 -21 4 -35 9 -32 12
3 3 40 0 82 -6 130 -21 91 0 -51 28 -45 8 -43 9 30 5 55 -3 74 -1 60 5 -11 5
-43 10 -72 10 -28 1 -55 6 -58 11 -4 6 12 10 40 10 28 0 44 4 40 10 -3 6 -27
10 -53 10 -44 1 -46 2 -28 15 19 15 19 15 -1 15 -22 0 -33 32 -33 99 0 39 -42
116 -68 126 -11 4 -10 -2 4 -22 l18 -28 -25 18 c-52 38 -208 107 -300 131
-106 29 -103 29 -207 -22 -46 -23 -78 -30 -155 -36 -89 -7 -100 -5 -126 14
-81 57 -169 73 -266 49 -40 -10 -50 -9 -92 11 -115 54 -150 59 -262 34z m265
-59 c54 -26 132 -63 172 -81 64 -30 76 -40 93 -77 11 -23 31 -61 45 -85 l25
-43 -25 -56 c-34 -74 -33 -83 7 -45 55 53 54 57 28 -123 -6 -38 -10 -94 -11
-123 l0 -52 -61 31 c-82 41 -84 33 -3 -11 35 -19 64 -39 64 -44 -1 -6 -20 -36
-43 -66 -42 -54 -44 -55 -117 -68 -41 -8 -113 -22 -160 -32 -76 -15 -94 -16
-170 -4 -47 7 -103 13 -125 12 l-40 0 40 -8 c22 -5 72 -12 110 -15 l70 -7
-120 -43 c-66 -23 -131 -47 -143 -54 -18 -9 -31 -10 -54 -2 -17 6 -56 11 -87
11 l-56 0 33 22 c34 21 77 22 192 3 32 -5 33 -5 10 6 -14 6 -56 14 -93 17
l-69 7 97 63 c108 71 204 122 228 122 9 0 60 -16 114 -35 54 -19 90 -28 79
-20 -10 8 -58 26 -106 42 -87 27 -87 28 -73 50 20 30 57 30 148 -1 39 -14 72
-23 74 -21 5 5 -66 34 -116 48 -24 6 -43 17 -43 24 0 18 19 16 121 -13 50 -14
93 -24 96 -21 5 6 -102 39 -164 52 -39 8 -40 13 -11 84 l23 53 80 -6 c44 -4
98 -9 120 -11 l40 -5 -35 11 c-19 6 -70 14 -114 17 -90 8 -93 11 -95 98 l-1
42 48 11 47 10 -52 -5 c-40 -3 -53 -1 -53 9 0 19 -50 117 -60 117 -5 0 2 -20
16 -43 16 -29 26 -66 29 -108 l5 -64 -13 55 c-20 80 -52 147 -79 161 -12 6
-26 16 -29 21 -3 5 -34 12 -67 15 l-61 6 -11 51 c-6 28 -15 58 -21 66 -8 12
-9 9 -5 -10 4 -14 9 -46 12 -71 6 -44 5 -47 -28 -67 -20 -12 -38 -22 -41 -22
-2 0 -17 24 -31 54 -15 30 -34 60 -43 67 -9 8 -3 -11 16 -48 17 -35 31 -65 31
-68 0 -5 -23 -16 -66 -29 -15 -5 -24 0 -34 20 -8 14 -23 30 -34 36 -16 9 -15
4 7 -21 15 -18 27 -38 27 -44 0 -7 -25 -26 -55 -44 -55 -32 -56 -32 -75 -13
-11 11 -25 20 -31 20 -7 0 1 -10 16 -22 l28 -22 -23 -18 c-23 -19 -24 -19 -49
6 -29 29 -23 43 11 25 23 -12 23 -12 4 10 -19 21 -19 21 4 46 29 31 31 31 69
-1 40 -33 40 -21 2 16 l-30 27 41 42 c45 45 41 45 102 -8 l29 -26 -27 37 c-15
20 -33 39 -41 42 -10 4 1 20 40 57 31 29 60 49 68 46 8 -3 26 -29 41 -59 19
-39 25 -45 21 -23 -4 17 -17 47 -31 68 l-24 37 32 15 c50 23 208 55 254 51 22
-2 85 -25 140 -51z m299 -31 c67 -35 145 -85 145 -93 -1 -3 -11 -18 -23 -33
-17 -20 -33 -27 -67 -30 -43 -3 -45 -2 -67 39 -20 34 -39 49 -116 90 l-92 48
55 6 c74 9 106 3 165 -27z m565 4 c36 -12 90 -32 120 -46 l54 -25 -49 -23
c-27 -14 -54 -29 -60 -35 -5 -5 20 4 56 21 59 27 70 29 95 18 60 -26 94 -59
94 -90 0 -17 6 -56 14 -87 8 -31 16 -70 20 -88 l5 -32 -39 14 c-21 7 -60 16
-87 19 -37 4 -29 1 31 -14 83 -21 106 -33 106 -56 0 -11 -6 -11 -32 0 -18 8
-49 17 -68 20 -22 4 -10 -4 33 -20 59 -23 67 -29 61 -48 -7 -25 -65 -180 -68
-184 -2 -1 -19 5 -39 13 -53 22 -58 18 -12 -9 22 -12 39 -27 38 -32 -1 -5 -12
-42 -26 -81 l-24 -73 -44 33 c-56 43 -169 110 -174 105 -2 -2 37 -32 88 -66
126 -86 130 -89 122 -102 -4 -7 -16 -3 -35 10 -30 22 -100 53 -100 46 0 -3 27
-21 60 -42 l60 -37 -71 -78 -71 -79 -51 44 c-50 42 -167 121 -167 113 0 -3 45
-39 100 -82 55 -43 100 -82 100 -87 0 -17 -31 -20 -48 -5 -19 16 -77 47 -89
47 -4 0 16 -16 45 -35 28 -20 52 -41 52 -48 -1 -6 -21 -29 -46 -51 -42 -35
-48 -38 -72 -26 -26 11 -26 11 -9 -8 18 -19 17 -21 -16 -47 -21 -15 -52 -58
-76 -103 -37 -72 -40 -74 -35 -37 3 22 12 57 20 78 8 20 14 51 14 67 0 16 13
51 28 77 25 41 37 83 25 83 -2 0 -29 -13 -61 -29 -87 -44 -189 -72 -231 -65
-20 4 -58 21 -86 39 -27 18 -68 40 -89 49 -36 15 -38 18 -24 32 21 21 38 15
144 -52 48 -30 88 -53 89 -52 6 6 -87 71 -145 102 -51 28 -59 35 -46 45 12 10
33 1 118 -50 127 -76 118 -71 118 -65 0 8 -143 101 -177 115 -18 7 -33 17 -33
22 0 13 73 59 93 59 11 0 58 -18 105 -40 47 -22 87 -39 89 -37 2 2 -37 25 -86
50 -68 34 -85 47 -71 52 19 6 99 -24 202 -76 32 -16 61 -29 65 -29 15 0 -83
55 -156 86 -64 28 -71 34 -53 43 10 5 39 26 62 46 54 45 74 43 204 -21 50 -25
82 -37 71 -29 -27 22 -121 69 -167 84 -21 7 -38 16 -38 20 0 9 43 48 91 83 22
16 50 54 74 99 l37 71 52 -6 c29 -3 68 -8 87 -11 27 -5 30 -4 12 4 -12 5 -49
13 -83 17 -70 8 -70 4 -14 113 38 75 41 93 17 112 -15 13 -15 12 -5 -7 9 -17
5 -30 -26 -80 -24 -39 -42 -59 -53 -56 -14 3 -14 10 7 60 13 31 27 74 30 94 4
21 10 35 15 32 5 -3 9 2 9 10 0 8 -4 18 -10 21 -5 3 -10 14 -10 23 1 9 10 0
21 -21 11 -22 23 -36 26 -33 7 7 -31 71 -43 71 -5 0 -15 4 -22 9 -18 11 -2 29
63 72 27 19 45 34 40 34 -15 0 -77 -39 -108 -68 -27 -26 -67 -40 -67 -23 0 5
16 32 35 61 41 61 44 72 10 40 -13 -12 -32 -42 -42 -66 -15 -36 -23 -44 -45
-44 -14 0 -33 -3 -42 -6 -22 -9 -21 33 3 96 11 27 17 50 15 50 -11 0 -44 -88
-44 -116 0 -28 -4 -32 -32 -37 -18 -2 -36 -3 -40 0 -10 5 -10 94 0 109 8 13
146 84 161 84 6 0 -1 -24 -14 -52 -14 -29 -25 -64 -24 -78 0 -16 6 -5 18 30 9
30 25 67 35 82 20 31 24 31 136 -4z m-331 -128 c-1 -58 -10 -77 -23 -44 -14
37 -1 104 20 104 2 0 3 -27 3 -60z m-1160 -19 c-57 -60 -62 -62 -88 -52 -15 7
-56 15 -92 19 l-64 7 97 34 c86 29 199 60 205 56 2 -1 -24 -30 -58 -64z m1124
-4 c4 -44 3 -49 -24 -62 -26 -14 -29 -14 -39 4 -5 11 -10 26 -10 33 0 16 63
95 66 82 1 -5 4 -31 7 -57z m-110 -24 c-7 -2 -21 -2 -30 0 -10 3 -4 5 12 5 17
0 24 -2 18 -5z m-598 -17 l50 -13 -30 -12 c-16 -7 -70 -24 -120 -36 -60 -16
-80 -25 -60 -26 l30 -1 -30 -8 c-30 -8 -30 -8 -4 -9 33 -1 177 28 202 41 10 5
21 7 24 4 10 -10 -50 -28 -162 -48 -96 -17 -168 -37 -239 -64 -14 -5 -17 -4
-12 5 4 6 1 22 -7 35 -15 22 -14 24 36 54 62 37 100 52 132 52 14 0 39 9 57
20 37 22 61 24 133 6z m578 -3 c-7 -2 -19 -2 -25 0 -7 3 -2 5 12 5 14 0 19 -2
13 -5z m61 -45 c-3 -5 -12 -8 -20 -8 -15 0 -18 18 -7 45 5 15 8 14 19 -6 7
-13 10 -27 8 -31z m-64 28 c0 -3 -4 -8 -10 -11 -5 -3 -10 -1 -10 4 0 6 5 11
10 11 6 0 10 -2 10 -4z m-497 -20 c4 -10 1 -13 -7 -10 -7 3 -46 -4 -87 -16
-40 -11 -83 -20 -94 -19 -11 0 13 9 53 19 40 11 80 24 90 29 24 15 39 13 45
-3z m520 -21 c4 -8 2 -17 -3 -20 -6 -4 -10 -4 -10 -1 0 2 -3 11 -6 20 -3 9 -2
16 4 16 5 0 12 -7 15 -15z m-26 -30 c-4 -8 -11 -15 -17 -15 -7 0 -7 6 0 21 13
23 26 19 17 -6z m1328 -8 c38 -22 69 -48 85 -73 33 -51 107 -220 114 -262 l6
-33 -29 21 c-16 11 -67 40 -113 65 -95 51 -99 61 -5 14 34 -18 56 -25 50 -17
-7 8 -34 25 -61 37 l-49 23 -5 70 c-4 51 -14 85 -36 129 -17 32 -28 59 -24 59
4 0 34 -15 67 -33z m-2391 -46 c13 -14 14 -20 4 -29 -18 -15 -50 10 -42 32 8
21 17 20 38 -3z m2296 5 c0 -2 -9 -6 -20 -9 -11 -3 -18 -1 -14 4 5 9 34 13 34
5z m0 -41 c-7 -8 -18 -15 -24 -15 -6 0 -2 7 8 15 25 19 32 19 16 0z m-2310
-15 c0 -5 -6 -15 -12 -22 -7 -7 -15 -22 -16 -33 -8 -42 -14 -28 -9 20 3 28 6
51 6 52 2 6 31 -10 31 -17z m21 -33 c-10 -9 -11 -8 -5 6 3 10 9 15 12 12 3 -3
0 -11 -7 -18z m2304 13 c-3 -5 -11 -10 -16 -10 -6 0 -7 5 -4 10 3 6 11 10 16
10 6 0 7 -4 4 -10z m15 -30 c0 -5 -5 -10 -11 -10 -5 0 -7 5 -4 10 3 6 8 10 11
10 2 0 4 -4 4 -10z m-1663 -22 c-3 -8 -6 -5 -6 6 -1 11 2 17 5 13 3 -3 4 -12
1 -19z m831 0 c-5 -15 -48 -24 -48 -10 0 14 12 22 33 22 10 0 17 -5 15 -12z
m-1738 -13 c0 -6 -87 -45 -98 -45 -9 1 80 49 91 50 4 0 7 -2 7 -5z m2874 -43
c9 -26 34 -77 55 -114 38 -65 39 -67 20 -84 -10 -9 -19 -22 -19 -27 0 -6 11 0
24 12 l24 23 12 -21 c9 -18 7 -28 -11 -58 -13 -20 -25 -31 -27 -25 -2 6 4 22
12 34 9 12 16 29 16 38 0 9 -7 4 -18 -12 -9 -16 -19 -28 -22 -28 -3 1 -22 29
-42 64 -33 56 -38 74 -44 155 -4 50 -4 91 -1 91 3 0 13 -21 21 -48z m-1987 16
c-3 -8 -6 -5 -6 6 -1 11 2 17 5 13 3 -3 4 -12 1 -19z m833 7 c0 -11 -60 -121
-78 -144 -15 -19 -25 -22 -47 -17 l-27 7 25 23 c14 13 35 43 47 67 12 24 27
50 32 57 10 12 48 17 48 7z m-856 -69 c-3 -9 -10 -16 -15 -16 -6 0 -5 9 1 21
13 24 24 20 14 -5z m-20 -41 c-4 -10 -14 -14 -28 -10 -16 5 -18 4 -6 -4 12 -8
12 -13 2 -23 -9 -9 -15 -9 -24 0 -9 9 -7 16 7 32 22 24 57 28 49 5z m-64 -60
c0 -8 -7 -15 -15 -15 -16 0 -20 12 -8 23 11 12 23 8 23 -8z m812 -17 c-5 -5
-21 -6 -37 -2 -33 8 -15 23 21 16 16 -3 22 -8 16 -14z m-842 -8 c12 -7 8 -11
-17 -16 -18 -4 -33 -10 -33 -15 0 -5 -8 -9 -17 -9 -14 0 -11 6 12 25 34 28 35
28 55 15z m803 -10 c8 0 8 -3 0 -11 -13 -13 -56 -2 -47 12 3 6 13 8 21 5 8 -3
20 -6 26 -6z m652 -9 c3 -5 2 -12 -3 -15 -5 -3 -9 1 -9 9 0 17 3 19 12 6z
m690 -60 c33 -66 54 -153 47 -196 -3 -20 -72 -73 -72 -55 0 5 -25 -2 -57 -15
-31 -14 -58 -23 -61 -20 -3 3 -1 5 4 5 15 0 107 60 102 66 -3 2 -42 -13 -86
-35 -45 -21 -96 -44 -113 -50 -50 -17 -28 -23 26 -6 76 22 65 10 -17 -19 -59
-21 -65 -25 -33 -21 45 5 22 -8 -32 -18 -31 -6 -32 -5 -23 18 22 57 45 90 117
168 85 92 128 154 145 210 6 20 13 37 14 37 2 0 19 -31 39 -69z m-2235 29 c0
-5 -8 -10 -17 -10 -15 0 -16 2 -3 10 19 12 20 12 20 0z m845 -20 c-32 -34 -33
-34 -71 -20 l-27 11 34 18 c19 10 47 19 63 20 l30 1 -29 -30z m-880 0 c3 -5
-1 -10 -10 -10 -9 0 -13 5 -10 10 3 6 8 10 10 10 2 0 7 -4 10 -10z m-101 -71
c-42 -28 -79 -47 -83 -44 -7 7 31 37 98 77 77 46 65 19 -15 -33z m895 40 c17
-6 31 -14 31 -17 0 -4 -17 -18 -37 -31 -39 -25 -64 -29 -123 -17 l-35 6 34
-13 35 -13 -57 -33 c-58 -33 -58 -33 -99 -17 -22 9 -43 15 -45 12 -3 -3 13
-13 36 -22 31 -12 39 -19 31 -29 -8 -10 -22 -8 -68 11 -31 13 -66 23 -77 23
l-20 -1 20 -5 c35 -9 115 -45 115 -53 0 -17 -15 -17 -48 0 -21 10 -59 24 -85
31 -27 6 -45 15 -40 19 4 4 64 30 133 59 69 29 143 61 165 71 75 34 87 35 134
19z m1577 -38 c-20 -22 -21 -38 -1 -21 18 15 19 1 1 -22 -16 -21 -30 -24 -23
-4 3 7 1 18 -5 24 -7 7 -3 20 13 42 19 25 25 28 27 15 2 -9 -3 -24 -12 -34z
m-2643 -27 c5 -28 2 -34 -39 -63 -39 -29 -44 -36 -44 -72 0 -24 -4 -38 -10
-34 -29 18 7 119 68 188 18 20 17 21 25 -19z m77 -34 c0 -5 -7 -10 -16 -10 -8
0 -12 5 -9 10 3 6 10 10 16 10 5 0 9 -4 9 -10z m-35 -20 c3 -5 1 -10 -4 -10
-6 0 -11 5 -11 10 0 6 2 10 4 10 3 0 8 -4 11 -10z m-20 -20 c3 -5 -1 -10 -9
-10 -9 0 -16 5 -16 10 0 6 4 10 9 10 6 0 13 -4 16 -10z m-30 -20 c3 -5 2 -10
-4 -10 -5 0 -13 5 -16 10 -3 6 -2 10 4 10 5 0 13 -4 16 -10z m-25 -20 c0 -5
-4 -10 -10 -10 -5 0 -10 5 -10 10 0 6 5 10 10 10 6 0 10 -4 10 -10z m753 -21
c56 -22 74 -39 39 -39 -10 0 -23 5 -30 12 -9 9 -12 6 -12 -13 0 -14 -9 -34
-20 -44 -16 -14 -24 -15 -51 -6 -18 6 -41 11 -53 10 -12 0 0 -7 27 -15 50 -15
56 -24 33 -43 -11 -10 -20 -10 -37 0 -12 6 -49 19 -82 28 l-59 17 41 52 c44
56 48 57 100 42 50 -14 49 -5 -1 14 l-43 16 45 -4 c25 -3 71 -15 103 -27z
m-559 12 l30 -6 -47 -24 c-26 -13 -54 -32 -63 -42 -11 -13 -33 -20 -63 -21
-37 -1 -39 -2 -13 -5 17 -2 32 -8 32 -12 0 -17 -31 -33 -55 -29 -13 3 -22 1
-19 -3 3 -5 14 -9 25 -9 17 0 15 -4 -13 -35 -25 -29 -38 -35 -65 -33 -18 1
-33 8 -33 14 0 7 16 33 35 58 19 25 38 60 43 78 l9 33 71 -1 c40 0 72 1 72 2
0 1 -25 8 -55 14 -30 6 -53 16 -50 21 7 10 113 10 159 0z m1666 -2 c83 -14
206 -14 245 0 l30 11 -25 -19 c-14 -11 -73 -45 -132 -77 -59 -31 -120 -71
-137 -89 -25 -28 -39 -34 -90 -40 -51 -6 -65 -4 -88 13 -15 11 -52 30 -82 43
-30 12 -49 25 -43 27 6 2 50 -15 98 -37 51 -24 81 -34 73 -24 -15 18 -126 73
-147 73 -7 0 -10 4 -7 10 4 6 20 4 43 -6 96 -41 133 -53 126 -43 -8 13 -108
59 -129 59 -8 0 -15 4 -15 8 0 13 73 89 90 95 26 9 123 7 190 -4z m-2027 -60
c12 -6 32 -23 44 -38 23 -28 22 -69 -4 -106 -13 -19 -13 -19 -13 0 -1 20 -29
78 -30 61 0 -5 5 -26 11 -47 7 -20 8 -46 4 -56 -7 -16 -9 -15 -15 7 -7 22 -8
20 -9 -13 -1 -21 -11 -54 -25 -75 -19 -31 -23 -48 -21 -101 3 -59 1 -67 -26
-93 -27 -28 -29 -28 -58 -13 -41 21 -52 19 -18 -4 33 -22 20 -39 -15 -20 -21
11 -22 11 -10 -4 11 -13 10 -17 -7 -26 -51 -28 -81 3 -88 93 -3 35 -3 76 1 91
l7 26 25 -31 c15 -17 40 -38 56 -46 31 -16 78 -12 78 7 0 6 -9 8 -20 4 -17 -5
-20 -2 -20 24 0 17 11 60 25 97 39 103 31 154 -27 178 l-30 13 39 30 c60 47
109 61 146 42z m1131 -110 c5 -4 -4 -11 -20 -14 -16 -3 -44 -10 -61 -14 -25
-7 -33 -6 -33 4 0 7 -3 21 -6 30 -6 16 -5 16 25 1 41 -22 40 -13 -3 13 -19 12
-42 33 -51 48 -17 25 -13 24 61 -17 44 -23 83 -46 88 -51z m-534 77 c0 -2 -7
-7 -16 -10 -8 -3 -12 -2 -9 4 6 10 25 14 25 6z m375 -47 c27 -58 23 -127 -9
-185 -14 -26 -25 -49 -23 -51 2 -2 16 6 31 18 26 20 27 20 54 3 37 -24 128
-111 164 -156 l29 -37 -43 23 c-24 13 -67 31 -96 41 -28 9 -50 20 -48 24 3 4
-12 7 -32 7 -20 0 -70 1 -110 2 l-73 2 16 30 c8 16 15 37 14 47 0 10 -9 -1
-19 -23 -21 -48 -46 -71 -36 -33 6 21 5 21 -9 -3 -9 -16 -23 -28 -33 -28 -14
0 -66 -20 -149 -57 -9 -4 -13 9 -14 43 l-1 49 -8 -47 c-11 -66 -23 -81 -31
-38 l-6 35 -2 -36 c-1 -33 -7 -40 -72 -83 -39 -26 -72 -46 -74 -44 -1 2 -12
21 -24 43 -12 22 -19 31 -15 20 12 -33 17 -95 7 -95 -5 0 -14 19 -20 43 -11
39 -63 105 -63 79 0 -6 5 -14 10 -17 16 -10 50 -82 50 -105 0 -16 -17 -28 -72
-55 -104 -49 -122 -52 -143 -23 l-17 23 7 -24 c7 -22 5 -23 -27 -16 -18 4 -49
16 -68 26 -30 16 -32 18 -12 19 13 0 33 5 45 12 42 22 63 67 31 64 -27 -2 -39
50 -25 104 16 61 74 152 80 125 6 -34 20 -42 77 -47 41 -4 66 -13 99 -36 31
-22 45 -27 45 -17 0 8 -11 22 -24 32 l-23 18 20 27 c12 16 22 49 25 81 4 46 1
57 -22 84 l-26 31 49 7 c89 12 154 -20 214 -105 l17 -25 -6 32 c-5 28 -1 37
28 64 48 44 83 60 147 65 98 9 120 14 151 40 16 14 30 34 30 45 0 31 16 22 35
-22z m1642 35 c-3 -3 -12 -4 -19 -1 -8 3 -5 6 6 6 11 1 17 -2 13 -5z m-1866
-36 c37 -12 66 -25 63 -29 -5 -9 -11 -7 -102 19 -34 10 -60 21 -56 25 11 11
22 9 95 -15z m-64 -20 c39 -9 43 -13 26 -19 -27 -10 -110 10 -91 22 16 11 11
11 65 -3z m-31 -39 c6 -10 -26 -12 -50 -3 -9 3 -14 10 -11 14 6 9 53 1 61 -11z
m2115 -6 c13 -16 12 -17 -3 -4 -10 7 -18 15 -18 17 0 8 8 3 21 -13z m-2157
-12 c14 -5 16 -10 8 -15 -15 -9 -52 2 -52 15 0 11 17 11 44 0z m2317 -18 c13
-16 12 -17 -3 -4 -10 7 -18 15 -18 17 0 8 8 3 21 -13z m-2818 0 c-7 -2 -21 -2
-30 0 -10 3 -4 5 12 5 17 0 24 -2 18 -5z m476 -12 c8 -5 9 -11 3 -15 -13 -8
-42 3 -42 15 0 11 21 11 39 0z m-501 -21 c-7 -11 -21 -20 -31 -20 -15 0 -16 3
-7 20 6 11 20 20 30 20 18 0 19 -3 8 -20z m1222 -25 c-7 -9 -15 -13 -19 -10
-3 3 1 10 9 15 21 14 24 12 10 -5z m-1250 -15 c0 -15 -69 -100 -82 -100 -15 0
-8 52 11 78 12 18 28 27 45 27 14 0 26 -2 26 -5z m578 -310 c5 -61 -58 -129
-143 -154 -18 -5 -20 -1 -22 52 -1 31 -3 68 -5 81 -4 34 51 62 117 59 49 -3
50 -3 53 -38z m203 -47 c-12 -20 -14 -14 -5 12 4 9 9 14 11 11 3 -2 0 -13 -6
-23z m-776 5 c5 4 5 1 1 -6 -6 -10 -11 -10 -22 -1 -8 6 -14 14 -14 16 0 3 6 0
13 -6 8 -6 18 -7 22 -3z m365 -111 c1 -17 -58 24 -63 45 -7 24 9 51 24 42 5
-3 9 -2 8 3 -1 4 0 13 1 18 1 9 29 -89 30 -108z m450 59 c0 -3 -4 -8 -10 -11
-5 -3 -10 -1 -10 4 0 6 5 11 10 11 6 0 10 -2 10 -4z m105 -16 c-3 -5 -12 -10
-18 -10 -7 0 -6 4 3 10 19 12 23 12 15 0z m-630 -10 c3 -5 1 -10 -4 -10 -6 0
-11 5 -11 10 0 6 2 10 4 10 3 0 8 -4 11 -10z m215 -44 c0 -2 -7 -7 -16 -10 -8
-3 -12 -2 -9 4 6 10 25 14 25 6z m69 -264 c-52 -34 -129 -117 -129 -141 1 -12
6 -11 23 9 12 14 48 49 79 78 l56 53 -5 -59 c-6 -66 -3 -70 61 -87 37 -10 40
-14 57 -73 36 -126 36 -121 -10 -115 -66 9 -124 -20 -206 -101 -88 -87 -134
-175 -165 -313 -12 -54 -29 -123 -38 -153 l-16 -55 -7 63 c-12 97 -46 209 -95
310 -49 101 -49 99 -17 212 l16 55 12 -34 c6 -19 16 -36 22 -38 16 -6 79 86
92 132 6 22 11 58 11 80 0 33 7 46 42 82 50 51 69 57 34 10 -31 -40 -60 -107
-50 -116 4 -3 9 0 11 7 11 31 85 131 124 167 l43 40 -45 -50 c-48 -54 -94
-123 -87 -131 3 -2 18 12 34 33 49 66 155 163 177 163 16 0 10 -7 -24 -28z
m568 -48 c-27 -14 -51 -23 -54 -20 -5 5 75 44 92 45 6 0 -12 -11 -38 -25z
m-198 -135 c27 -163 11 -210 -100 -294 l-61 -46 7 58 c7 68 -5 147 -39 251
l-23 71 39 5 c21 3 56 9 77 12 22 3 47 12 58 19 23 17 29 8 42 -76z m-661 -17
c-3 -57 -8 -75 -34 -110 -30 -40 -32 -41 -38 -20 -9 37 -7 58 9 74 8 9 15 32
15 51 0 35 22 73 43 73 5 0 8 -29 5 -68z m1717 -2 c-3 -5 -11 -10 -16 -10 -6
0 -7 5 -4 10 3 6 11 10 16 10 6 0 7 -4 4 -10z m-1875 -95 c0 -19 -21 -65 -31
-65 -11 0 -16 69 -4 74 21 9 35 6 35 -9z m-100 -27 l0 -31 -26 24 -26 24 24 6
c13 4 24 7 26 8 1 1 2 -13 2 -31z m45 -23 c6 -55 19 -67 44 -42 10 10 11 4 5
-28 -3 -22 -7 -41 -8 -42 -1 -1 -17 16 -34 39 -25 32 -32 52 -32 85 0 61 16
53 25 -12z m-270 -57 c-9 -41 -33 -88 -44 -88 -5 0 -11 16 -13 36 -3 30 1 39
25 60 37 31 40 30 32 -8z m955 -25 c-1 -57 -1 -58 -43 -85 -23 -15 -53 -36
-67 -47 -19 -15 -44 -20 -101 -23 l-76 -3 15 35 c23 57 52 90 106 125 59 37
100 53 139 54 26 1 27 0 27 -56z m420 -7 c0 -2 -8 -10 -17 -17 -16 -13 -17
-12 -4 4 13 16 21 21 21 13z m100 0 c0 -2 -7 -7 -16 -10 -8 -3 -12 -2 -9 4 6
10 25 14 25 6z m-2485 -57 c8 -43 0 -115 -14 -138 -15 -24 -51 60 -51 118 0
49 6 59 42 60 11 1 18 -11 23 -40z m86 -23 c6 -8 2 -136 -4 -143 -2 -1 -14 15
-26 38 -14 24 -25 65 -28 102 l-6 62 29 -25 c16 -14 32 -29 35 -34z m797 7
c-3 -27 -18 -77 -34 -112 -25 -58 -29 -62 -35 -40 -4 13 -7 46 -8 74 -1 44 3
53 36 87 20 21 39 38 41 38 3 0 2 -21 0 -47z m-973 -3 c11 -35 14 -110 5 -110
-11 0 -29 32 -41 73 -13 45 22 81 36 37z m1355 -116 c0 -54 -52 -195 -128
-346 -2 -5 1 -8 7 -8 25 0 120 191 140 280 l8 35 22 -70 c28 -90 41 -179 40
-285 l0 -85 -60 -52 c-84 -72 -202 -128 -335 -157 -105 -24 -331 -52 -340 -43
-2 2 47 15 111 27 63 13 115 27 115 31 0 4 -12 6 -27 4 -268 -34 -404 -70
-555 -146 -145 -73 -211 -201 -163 -316 25 -59 43 -73 92 -73 24 0 54 -5 65
-11 21 -11 21 -12 -3 -25 -68 -38 -232 10 -259 75 -17 42 -7 148 19 199 89
174 256 273 566 336 212 43 352 105 442 193 93 92 163 272 178 457 l7 88 29
-44 c16 -24 29 -52 29 -64z m-1060 5 c0 -15 3 -42 6 -60 l7 -34 -26 24 c-25
23 -49 74 -62 134 l-6 29 40 -34 c28 -23 41 -41 41 -59z m3400 57 c0 -2 -7 -7
-16 -10 -8 -3 -12 -2 -9 4 6 10 25 14 25 6z m-3322 -61 c31 -19 48 -51 40 -76
-5 -16 -73 52 -81 80 -6 24 -6 24 41 -4z m-393 -6 c-4 -5 0 -9 7 -9 7 0 -2
-10 -19 -22 -44 -31 -42 -42 3 -16 l37 22 -7 -65 c-9 -90 -10 -185 0 -201 5
-9 2 -8 -11 2 -10 8 -31 42 -47 75 -34 72 -39 158 -11 169 14 6 15 9 4 15 -10
6 -9 10 4 14 10 5 14 3 9 -4 -4 -7 -1 -10 7 -7 8 3 13 14 13 26 -1 12 3 19 7
16 5 -3 7 -10 4 -15z m825 -11 c0 -7 -4 -19 -9 -26 -6 -11 -9 -9 -14 7 -2 11
-2 22 1 25 10 10 22 6 22 -6z m-110 -68 c0 -59 -15 -66 -24 -12 -9 54 -8 62 9
62 11 0 15 -12 15 -50z m-171 4 c-14 -17 2 -19 21 -1 12 10 12 9 1 -5 -7 -10
-10 -18 -6 -18 4 0 2 -7 -5 -15 -7 -8 -16 -12 -21 -9 -5 3 -4 -6 2 -20 l11
-24 23 26 c27 31 24 36 55 -88 11 -47 33 -110 48 -141 l27 -57 -39 34 c-56 48
-93 96 -117 148 -20 46 -32 142 -20 161 3 6 6 13 7 18 1 4 2 10 3 13 0 3 6 2
11 -1 8 -5 7 -11 -1 -21z m1333 -16 l47 -30 -16 -41 c-9 -23 -17 -43 -18 -45
-2 -2 -32 42 -90 132 l-19 29 24 -8 c14 -4 46 -21 72 -37z m-66 -145 l45 -62
-16 -55 c-9 -31 -18 -56 -20 -56 -9 0 -135 222 -135 238 0 9 3 27 6 40 7 23 7
23 41 -10 19 -18 55 -61 79 -95z m-26 -283 c13 -19 17 -35 12 -59 -7 -32 -8
-31 -44 50 -36 79 -37 81 -12 58 14 -13 34 -35 44 -49z m-38 -170 c24 -43 24
-47 11 -100 -22 -88 -24 -89 -45 -25 -28 89 -68 238 -68 254 0 17 68 -69 102
-129z m-118 -117 c14 -43 32 -107 40 -142 l15 -64 -34 -34 c-39 -39 -67 -42
-110 -9 -31 24 -32 27 -38 122 -5 88 -3 104 19 158 13 33 24 63 24 67 0 4 5
20 11 36 l11 28 18 -42 c10 -23 30 -77 44 -120z m-301 31 c18 -44 31 -88 28
-97 -5 -14 -13 -12 -54 16 l-48 32 5 56 c6 65 15 94 27 82 4 -4 23 -44 42 -89z
m-124 32 c15 -59 15 -59 -11 -50 -13 4 -35 7 -50 6 -17 -2 -28 3 -28 10 0 7
-3 23 -6 35 -5 18 -1 25 17 32 51 21 66 14 78 -33z m-502 8 c-3 -3 -12 -4 -19
-1 -8 3 -5 6 6 6 11 1 17 -2 13 -5z m363 -37 l23 -43 -20 -44 -20 -45 -20 45
c-28 63 -37 117 -21 123 27 11 36 6 58 -36z m-127 -57 c38 -41 76 -79 83 -83
21 -12 17 -41 -10 -66 -30 -28 -48 -20 -101 41 -30 36 -95 152 -95 171 0 6 29
14 44 13 5 -1 40 -35 79 -76z"/>
<path d="M2317 4512 c-15 -17 -47 -83 -47 -99 0 -4 16 19 35 52 36 59 41 79
12 47z"/>
<path d="M2175 4479 c4 -10 10 -39 15 -65 l9 -49 -3 53 c-2 29 -9 59 -15 65
-9 9 -11 8 -6 -4z"/>
<path d="M2354 4478 c-37 -63 -37 -63 -11 -33 25 28 33 45 23 45 -3 0 -8 -6
-12 -12z"/>
<path d="M2483 4407 c-24 -11 -43 -25 -43 -30 0 -5 6 -5 13 1 7 6 33 20 57 31
25 11 38 20 30 20 -8 0 -34 -10 -57 -22z"/>
<path d="M2520 4384 c-67 -30 -153 -85 -145 -92 2 -3 13 2 22 10 10 9 55 34
101 57 45 23 82 43 82 46 0 6 3 8 -60 -21z"/>
<path d="M2279 4356 c27 -29 57 -25 40 5 -12 24 -20 25 -12 2 6 -17 5 -17 -14
0 -29 26 -40 21 -14 -7z"/>
<path d="M2224 4351 c3 -5 21 -14 38 -20 l33 -11 -24 20 c-23 20 -57 28 -47
11z"/>
<path d="M2341 4344 c0 -11 3 -14 6 -6 3 7 2 16 -1 19 -3 4 -6 -2 -5 -13z"/>
<path d="M2605 4290 c-16 -7 -17 -9 -3 -9 9 -1 20 4 23 9 7 11 7 11 -20 0z"/>
<path d="M2648 4293 c6 -2 18 -2 25 0 6 3 1 5 -13 5 -14 0 -19 -2 -12 -5z"/>
<path d="M2570 4229 c-25 -4 -60 -11 -79 -14 -18 -4 -31 -8 -30 -10 6 -5 210
23 217 29 8 8 -55 5 -108 -5z"/>
<path d="M2418 4193 c7 -3 16 -2 19 1 4 3 -2 6 -13 5 -11 0 -14 -3 -6 -6z"/>
<path d="M2577 4099 c10 -9 110 -24 102 -15 -4 4 -30 10 -58 15 -29 5 -49 5
-44 0z"/>
<path d="M2525 4029 c22 -4 54 -8 70 -7 29 0 29 0 5 8 -14 4 -45 8 -70 8 l-45
0 40 -9z"/>
<path d="M2458 3918 c5 -5 16 -8 23 -6 8 3 3 7 -10 11 -17 4 -21 3 -13 -5z"/>
<path d="M2195 3654 c54 -7 101 -12 103 -10 6 6 -124 26 -164 25 -21 -1 6 -7
61 -15z"/>
<path d="M2720 4409 c0 -5 5 -7 10 -4 6 3 10 8 10 11 0 2 -4 4 -10 4 -5 0 -10
-5 -10 -11z"/>
<path d="M2746 4381 c-3 -4 6 -6 19 -3 14 2 25 6 25 8 0 8 -39 4 -44 -5z"/>
<path d="M2765 4360 c-18 -8 -18 -9 5 -9 14 0 32 4 40 9 12 8 12 10 -5 9 -11
0 -29 -4 -40 -9z"/>
<path d="M2775 4340 l-30 -8 35 -1 c19 0 42 4 50 9 12 8 11 10 -5 9 -11 -1
-33 -5 -50 -9z"/>
<path d="M3423 4320 c-36 -14 -27 -19 15 -9 55 15 60 17 32 18 -14 0 -35 -4
-47 -9z"/>
<path d="M3313 4269 c4 -13 7 -30 7 -36 0 -19 27 -16 34 3 4 12 2 15 -9 10
-10 -3 -15 1 -15 14 0 10 -5 22 -12 26 -8 5 -9 0 -5 -17z"/>
<path d="M3455 4240 c-24 -13 -30 -18 -15 -15 14 4 57 12 95 20 l70 13 -55 1
c-36 0 -69 -6 -95 -19z"/>
<path d="M3367 4226 c-4 -10 -5 -21 -2 -24 9 -9 17 6 13 25 -3 17 -4 17 -11
-1z"/>
<path d="M3366 4030 c34 -5 85 -16 115 -24 65 -20 75 -14 17 9 -24 9 -77 19
-118 20 l-75 4 61 -9z"/>
<path d="M3411 4005 c9 -8 79 -35 79 -30 0 2 -16 12 -36 20 -37 15 -51 19 -43
10z"/>
<path d="M3418 3933 c7 -3 16 -2 19 1 4 3 -2 6 -13 5 -11 0 -14 -3 -6 -6z"/>
<path d="M3280 3861 c14 -4 39 -11 55 -14 l30 -6 -30 14 c-16 8 -41 14 -55 14
l-25 -1 25 -7z"/>
<path d="M2104 4265 c-25 -19 -14 -19 22 0 16 8 22 15 13 15 -8 0 -24 -7 -35
-15z"/>
<path d="M2123 4252 c-35 -14 -62 -27 -60 -28 6 -7 107 25 128 40 33 23 5 18
-68 -12z"/>
<path d="M4140 4050 c0 -6 7 -10 15 -10 8 0 15 2 15 4 0 2 -7 6 -15 10 -8 3
-15 1 -15 -4z"/>
<path d="M4158 4013 c6 -2 18 -2 25 0 6 3 1 5 -13 5 -14 0 -19 -2 -12 -5z"/>
<path d="M4151 3996 c2 -2 15 -9 29 -15 24 -11 24 -11 6 3 -16 13 -49 24 -35
12z"/>
<path d="M4173 3955 c27 -15 51 -24 54 -21 6 6 -42 31 -77 40 -14 4 -3 -5 23
-19z"/>
<path d="M4406 3794 c-4 -9 -4 -19 -1 -22 2 -3 7 3 11 12 4 9 4 19 1 22 -2 3
-7 -3 -11 -12z"/>
<path d="M4230 3515 c-16 -9 -19 -14 -9 -15 8 0 24 7 35 15 24 18 7 19 -26 0z"/>
<path d="M4250 3498 c-71 -42 -82 -50 -77 -54 6 -7 123 52 132 66 10 16 -17
10 -55 -12z"/>
<path d="M2402 3455 c7 -7 98 -34 98 -29 0 8 -68 34 -86 34 -10 0 -15 -2 -12
-5z"/>
<path d="M3480 3440 c20 -13 33 -13 25 0 -3 6 -14 10 -23 10 -15 0 -15 -2 -2
-10z"/>
<path d="M3420 3420 c0 -4 8 -10 18 -13 9 -3 32 -10 50 -15 37 -12 42 -8 11 9
-33 17 -79 29 -79 19z"/>
<path d="M1810 2834 c0 -11 38 -74 45 -74 2 0 -5 17 -17 38 -27 46 -28 48 -28
36z"/>
<path d="M1860 2791 c0 -5 5 -13 10 -16 6 -3 10 -2 10 4 0 5 -4 13 -10 16 -5
3 -10 2 -10 -4z"/>
<path d="M1635 3158 l-16 -33 20 25 c20 24 26 40 16 40 -2 0 -12 -15 -20 -32z"/>
<path d="M2125 2870 c-3 -5 1 -10 9 -10 8 0 18 5 21 10 3 6 -1 10 -9 10 -8 0
-18 -4 -21 -10z"/>
<path d="M2141 2851 c-7 -5 -9 -11 -5 -14 10 -5 54 9 54 18 0 8 -34 6 -49 -4z"/>
<path d="M2145 2820 c-4 -6 5 -10 20 -10 15 0 24 4 20 10 -3 6 -12 10 -20 10
-8 0 -17 -4 -20 -10z"/>
<path d="M2145 2790 c3 -5 13 -10 21 -10 8 0 12 5 9 10 -3 6 -13 10 -21 10 -8
0 -12 -4 -9 -10z"/>
<path d="M2145 2760 c3 -5 11 -10 16 -10 6 0 7 5 4 10 -3 6 -11 10 -16 10 -6
0 -7 -4 -4 -10z"/>
<path d="M2226 2350 c-20 -18 -36 -39 -36 -48 0 -11 14 -3 42 25 50 50 45 68
-6 23z"/>
<path d="M2208 2216 c-47 -36 -141 -172 -154 -220 -3 -14 -4 -26 -1 -26 3 0
25 33 50 73 25 40 73 100 106 134 34 34 61 64 61 67 0 13 -19 4 -62 -28z"/>
<path d="M2337 2205 c-81 -32 -151 -88 -209 -165 -35 -47 -68 -107 -68 -125 0
-27 16 -15 34 25 34 78 133 167 285 257 49 30 24 35 -42 8z"/>
<path d="M2035 2146 c-17 -41 -18 -46 -7 -46 14 0 42 69 31 75 -5 4 -16 -9
-24 -29z"/>
<path d="M2083 2148 c-25 -27 -53 -92 -53 -122 0 -13 16 7 41 53 42 78 48 107
12 69z"/>
<path d="M2305 2008 c-60 -31 -77 -48 -64 -65 6 -7 19 -13 28 -14 10 0 11 -2
4 -6 -26 -10 -12 -22 20 -16 44 8 58 23 22 24 -28 1 -27 2 13 16 48 17 55 33
15 34 -19 1 -10 6 30 16 31 8 57 19 57 24 0 17 -85 8 -125 -13z"/>
<path d="M1544 1375 c-41 -39 -101 -82 -149 -107 -44 -23 -74 -43 -67 -46 17
-5 135 51 192 93 45 33 108 110 98 120 -3 3 -36 -24 -74 -60z"/>
<path d="M1248 1217 c-37 -10 -52 -27 -24 -27 23 0 76 22 76 31 0 10 -2 10
-52 -4z"/>
<path d="M1481 2241 c13 -11 26 -17 29 -14 6 6 -30 33 -43 33 -5 0 1 -9 14
-19z"/>
<path d="M1384 2205 c11 -8 29 -15 40 -15 25 0 19 4 -24 18 -32 11 -33 10 -16
-3z"/>
<path d="M2544 157 c-17 -67 -34 -130 -38 -140 -5 -10 -4 -17 2 -17 6 0 19 26
30 58 21 58 28 46 13 -20 -9 -38 1 -53 13 -21 13 32 27 218 19 240 -6 17 -15
-5 -39 -100z"/>
</g>
</svg>
